<?xml version="1.0" encoding="utf-8"?>
<!-- Generator: Adobe Illustrator 17.1.0, SVG Export Plug-In . SVG Version: 6.00 Build 0)  -->
<!DOCTYPE svg PUBLIC "-//W3C//DTD SVG 1.1//EN" "http://www.w3.org/Graphics/SVG/1.1/DTD/svg11.dtd">
<svg version="1.1" id="Layer_1" xmlns="http://www.w3.org/2000/svg" xmlns:xlink="http://www.w3.org/1999/xlink" x="0px" y="0px"
	 viewBox="0 0 560 490" enable-background="new 0 0 560 490" xml:space="preserve">
<g>
	<ellipse fill="none" stroke="#9E9E9E" stroke-width="5" stroke-miterlimit="10" cx="228.4" cy="213.1" rx="193.4" ry="94.3"/>
	<polyline fill="none" stroke="#B21F29" stroke-width="5" stroke-miterlimit="10" points="205.2,308.3 444.7,372.8 471.1,355.5 
		471.1,337.2 360.8,283 	"/>
	<path fill="none" stroke="#B21F29" stroke-width="5" stroke-miterlimit="10" d="M386.7,266.7c2,0.5,117.4,61.9,117.4,61.9
		l21.9-16.2v-18.3l-107.8-99.4"/>
	<polyline fill="none" stroke="#B21F29" stroke-width="5" stroke-miterlimit="10" points="280.8,305.1 445.2,352.5 469.6,337.2 	"/>
	<path fill="none" stroke="#B21F29" stroke-width="5" stroke-miterlimit="10" d="M208.6,319.8c0,10.4-7.9,18.8-17.6,18.8
		c-9.7,0-17.6-8.4-17.6-18.8c0-10.4,7.9-18.8,17.6-18.8C200.7,301.1,208.6,309.5,208.6,319.8"/>
	<polyline fill="none" stroke="#B21F29" stroke-width="5" stroke-miterlimit="10" points="95.1,283.5 130.4,329.5 189.5,338.4 	"/>
	<polyline fill="none" stroke="#B21F29" stroke-width="5" stroke-miterlimit="10" points="396.4,299.7 409.9,290.9 402.1,284.2 
		409.6,278.4 	"/>
	<polyline fill="none" stroke="#B21F29" stroke-width="5" stroke-miterlimit="10" points="504.2,328.6 504.2,308.3 526,294.1 	"/>
	<path fill="none" stroke="#B21F29" stroke-width="5" stroke-miterlimit="10" d="M403,253c2.5,0.5,101.2,55.3,101.2,55.3"/>
	<line fill="none" stroke="#B21F29" stroke-width="5" stroke-miterlimit="10" x1="444.2" y1="352.5" x2="444.7" y2="373.6"/>
	<ellipse fill="#FFFFFF" stroke="#B22025" stroke-width="2.9973" stroke-miterlimit="10" cx="191" cy="319.8" rx="17.6" ry="18.8"/>
</g>
</svg>
