<?xml version="1.0" encoding="utf-8"?>
<!-- Generator: Adobe Illustrator 17.1.0, SVG Export Plug-In . SVG Version: 6.00 Build 0)  -->
<!DOCTYPE svg PUBLIC "-//W3C//DTD SVG 1.1//EN" "http://www.w3.org/Graphics/SVG/1.1/DTD/svg11.dtd">
<svg version="1.1" id="Layer_1" xmlns="http://www.w3.org/2000/svg" xmlns:xlink="http://www.w3.org/1999/xlink" x="0px" y="0px"
	 viewBox="0 0 560 490" enable-background="new 0 0 560 490" xml:space="preserve">
<ellipse fill="none" stroke="#9E9E9E" stroke-width="5" stroke-miterlimit="10" cx="225.9" cy="210" rx="193.4" ry="94.7"/>
<path fill="none" stroke="#9E9E9E" stroke-width="5" stroke-miterlimit="10" d="M384.2,263.9c2,0.5,117.4,62.1,117.4,62.1l21.9-16.3
	v-18.3l-107.8-99.8"/>
<polyline fill="none" stroke="#9E9E9E" stroke-width="5" stroke-miterlimit="10" points="275.9,301.5 442.7,350 467.1,334.7 "/>
<polyline fill="none" stroke="#9E9E9E" stroke-width="5" stroke-miterlimit="10" points="91.1,277.9 127.8,326.9 182.4,336.4 "/>
<ellipse fill="none" stroke="#B21F29" stroke-width="5" stroke-miterlimit="10" cx="227.1" cy="140.1" rx="48.8" ry="11.9"/>
<polyline fill="none" stroke="#9D9D9D" stroke-width="3.0033" stroke-miterlimit="10" points="393.9,297 407.4,288.2 399.6,281.4 
	407.1,275.6 "/>
<polyline fill="none" stroke="#9E9E9E" stroke-width="5" stroke-miterlimit="10" points="501.6,326 501.6,305.7 523.5,291.4 "/>
<path fill="none" stroke="#9E9E9E" stroke-width="5" stroke-miterlimit="10" d="M400.5,250.1c2.5,0.5,101.2,55.5,101.2,55.5"/>
<path fill="#FFFFFF" d="M72.7,241.1c1.3,16.4-3.2,30.1-10.1,30.7c-6.9,0.6-13.5-12.3-14.9-28.7c-1.3-16.4,3.2-30.1,10.1-30.7
	C64.7,211.9,71.4,224.7,72.7,241.1"/>
<path fill="none" stroke="#B21F29" stroke-width="5" stroke-miterlimit="10" d="M72.7,241.1c1.3,16.4-3.2,30.1-10.1,30.7
	c-6.9,0.6-13.5-12.3-14.9-28.7c-1.3-16.4,3.2-30.1,10.1-30.7C64.7,211.9,71.4,224.7,72.7,241.1z"/>
<line fill="#FFFFFF" x1="383.7" y1="270" x2="388.3" y2="286.8"/>
<path fill="none" stroke="#B21F29" stroke-width="5" stroke-linecap="round" stroke-linejoin="round" stroke-miterlimit="10" d="
	M127,325c0,0-20.3-34.6,1.5-58.6c21.9-23.9,45.8-7.6,45.8-7.6l13.7,14.3c0,0-15.8-9.7-38.6,4.6c-27.8,17.3-13.2,49.9-13.2,49.9"/>
<polyline fill="none" stroke="#B21F29" stroke-width="5" stroke-linecap="round" stroke-linejoin="round" stroke-miterlimit="10" points="
	496.5,299.8 510.3,290.9 510.3,284.3 419.8,200.7 "/>
<path fill="none" stroke="#B21F29" stroke-width="5" stroke-linecap="round" stroke-linejoin="round" stroke-miterlimit="10" d="
	M412.2,184.4c0,0,3.1,103.4-223.7,85.6"/>
<line fill="none" stroke="#9E9E9E" stroke-width="5" stroke-miterlimit="10" x1="202.7" y1="305.7" x2="188" y2="273.1"/>
<line fill="none" stroke="#9D9D9D" stroke-width="3.0033" stroke-miterlimit="10" x1="254.9" y1="356.1" x2="254.6" y2="356.1"/>
<g>
	<polyline fill="none" stroke="#9E9E9E" stroke-width="5" stroke-miterlimit="10" points="358.3,280.2 468.6,334.7 468.6,353 
		442.2,370.3 202.7,305.7 	"/>
	<line fill="none" stroke="#9E9E9E" stroke-width="5" stroke-miterlimit="10" x1="442.9" y1="351.1" x2="443.4" y2="372.6"/>
</g>
<line fill="none" stroke="#B21F29" stroke-width="5" stroke-miterlimit="10" x1="383.7" y1="270" x2="388.3" y2="286.8"/>
<path fill="#FFFFFF" d="M207.1,315.1c0,10.3-7.8,18.7-17.5,18.7c-9.7,0-17.5-8.4-17.5-18.7c0-10.3,7.8-18.7,17.5-18.7
	C199.3,296.4,207.1,304.7,207.1,315.1"/>
<ellipse fill="none" stroke="#9E9E9E" stroke-width="5" stroke-miterlimit="10" cx="187.9" cy="317.8" rx="18.8" ry="20.1"/>
<polyline fill="none" stroke="#B21F29" stroke-width="5" stroke-linecap="round" stroke-linejoin="round" stroke-miterlimit="10" points="
	453.9,325.3 456.9,331.1 442.9,337.9 187,271 "/>
<polyline fill="#FFFFFF" points="238.8,178.3 229.7,184.4 330.3,261.9 388.3,286.8 417.8,265.9 410.1,253.7 "/>
<polygon fill="#FFFFFF" points="238.8,178.3 383.7,270 408.1,253.7 286.6,166.1 "/>
<polyline fill="none" stroke="#B21F29" stroke-width="5" stroke-miterlimit="10" points="238.8,178.3 229.7,184.4 330.3,261.9 
	388.3,286.8 417.8,265.9 408.1,253.7 "/>
<polygon fill="none" stroke="#B21F29" stroke-width="5" stroke-miterlimit="10" points="240.9,177.8 383.7,270 408.1,253.7 
	286.6,166.1 "/>
</svg>
