<svg width="329" height="123" viewBox="0 0 329 123" fill="none" xmlns="http://www.w3.org/2000/svg">
<path d="M328.5 61.5C328.5 69.7964 324.004 77.7605 315.742 85.0639C307.48 92.3668 295.496 98.9663 280.644 104.519C250.944 115.622 209.881 122.5 164.5 122.5C119.119 122.5 78.0555 115.622 48.356 104.519C33.5044 98.9663 21.5204 92.3668 13.2584 85.0639C4.99562 77.7605 0.5 69.7964 0.5 61.5C0.5 53.2036 4.99562 45.2395 13.2584 37.9361C21.5204 30.6332 33.5044 24.0337 48.356 18.4813C78.0555 7.37781 119.119 0.5 164.5 0.5C209.881 0.5 250.944 7.37781 280.644 18.4813C295.496 24.0337 307.48 30.6332 315.742 37.9361C324.004 45.2395 328.5 53.2036 328.5 61.5Z" stroke="#FF0000"/>
</svg>
