<?xml version="1.0" encoding="utf-8"?>
<!-- Generator: Adobe Illustrator 17.1.0, SVG Export Plug-In . SVG Version: 6.00 Build 0)  -->
<!DOCTYPE svg PUBLIC "-//W3C//DTD SVG 1.1//EN" "http://www.w3.org/Graphics/SVG/1.1/DTD/svg11.dtd">
<svg version="1.1" id="Layer_1" xmlns="http://www.w3.org/2000/svg" xmlns:xlink="http://www.w3.org/1999/xlink" x="0px" y="0px"
	 viewBox="0 0 560 490" enable-background="new 0 0 560 490" xml:space="preserve">
<g>
	<path fill="#62615F" d="M72.5,183.3l108.2-12.8c0,0,4.5-11.6,6.3-17.6c1.9-6,69.4-17.3,94.5,0.6l23-5.6l-18.6-6.6
		c0,0-60.7-8.5-132.8,8.2c-72.1,16.7-80.8,33.1-80.8,33.1"/>
	<path fill="#E0E1DC" d="M46.1,179.4c-0.6,0.5,7.4,6.6,7.4,6.6l19-3.3c0,0,71.8-51.8,215.6-41.6l-10-7.1c0,0-59.4-5.9-121.4,3
		C115.5,142.9,73.4,155.8,46.1,179.4"/>
	<polygon fill="#B22025" points="136.8,140.8 153.7,150.2 160.4,148.4 153.5,137.4 	"/>
	<polygon fill="#B22025" points="132.6,141.5 150.5,150.8 146.3,151.7 121.2,144.3 	"/>
	<polygon fill="#B22025" points="157.8,136.9 162.2,148.2 164.8,147.5 169.4,135.5 	"/>
	<path fill="#E0E1DC" d="M227.7,161.7l-0.7,5.4c0,0-67.6-5.1-29.4-19.7c0,0,37.8-7.6,65.8-0.8c26,6.3,17.8,11,17.8,11l-29.2-2.9
		c0,0-8.8-12.1-31.4-0.5L227.7,161.7z"/>
	<path fill="#62615F" d="M241.9,149.4c0,0-17.9-2.8-22,5.9c0,0,0.2,5.1,8.2,6.4C228,161.8,230.4,151.5,241.9,149.4"/>
	<path fill="#6E75AF" d="M227.6,162.4c0,0,6.1-21.3,24.4-7.7L227.6,162.4z"/>
	<polygon fill="#88181E" points="418,269.3 506.3,310.6 507.2,316.7 420,273.4 	"/>
	<polygon fill="#88181E" points="185.7,279 343.9,326.1 446.6,355.5 446.2,361.6 191.7,285.4 	"/>
	<polygon fill="#A01A22" points="446.6,355.5 446.9,360.7 466.5,346.7 465.9,342.3 	"/>
	<polygon fill="#A01A22" points="507.4,310.5 507.6,315.7 520.3,306.5 520.3,301 	"/>
	<polygon fill="#E0E1DC" points="507.2,316.7 520.5,307 520.2,300.6 459,242.1 530.1,307 513.2,320.1 	"/>
	<polyline fill="#E0E1DC" points="191.7,286.1 446.2,361.6 466,346.8 472.4,350.4 451.9,365.2 196,293 	"/>
	<path fill="#E0E1DC" d="M180.7,170.5L53.5,185.9c0,0-18,12.7-12.7,46.2c0,0,4.4,8.2,12.3,7.5l3.4-10.5l123.1-52.4L180.7,170.5z"/>
	<path fill="#C1C1C1" d="M96.2,214l96.4-29.6c0.7-0.2,1.5-0.1,2.1,0.3l5.1,3.7c1.6,1.2,2.6,1.8-0.3,4.1l-94.4,50.3
		c-1.4,0.7-3,0-3.5-1.5L94.6,217C94.2,215.7,94.9,214.4,96.2,214"/>
	<path fill="#62615F" d="M129.8,204.4l-0.2,6.1c0,0,8.5,3.3,8.2,2.2c-0.3-1-3.4-9.2-3.4-9.2l-5.5,1.4"/>
	<path fill="#62615F" d="M112.9,222.5l5,12.7l25.6-13.4l-17-5c0,0-1.2,9.8-14.3,3.7"/>
	<path fill="#E0E1DC" d="M60.2,199.1l52.6,23.5c0,0-14.5-18.4,5.7-25l-54.2-9.4C64.3,188.2,56.1,189.9,60.2,199.1"/>
	<polygon fill="#353433" points="333,279.7 402.7,313 415.5,303.6 407.2,296.3 397.2,303.7 339.4,277.9 	"/>
	<path fill="#C1C1C1" d="M513.2,320.1l-3.4,21.4c0,0,21.9-11.9,23.6-17.3c1.7-5.4-3.1-16.5-3.1-16.5L513.2,320.1z"/>
	<path fill="#B22025" d="M419.1,203.6c0,0-3.7,36.9-23.2,46.9c-12.7,6.5,111,60.2,111,60.2l13.3-10.1L419.1,203.6z"/>
	<path fill="#C1C1C1" d="M409.1,195.3c0,0-4.5,37-25.5,48.7l11.2,8.4c0,0,28.6-22.7,24.8-49L409.1,195.3z"/>
	<polygon fill="#62615F" points="247.9,191.9 237,200.8 339.4,277.6 396.8,303.5 391.8,286.9 	"/>
	<polygon fill="#C1C1C1" points="392.1,286.5 396.8,303.2 426.8,281.3 417,268.3 	"/>
	<path fill="#B22025" d="M210.1,286.9l235.6,68.9l20.3-13.4l-133.1-62.6C332.8,279.7,235.8,294.4,210.1,286.9"/>
	<path fill="#C1C1C1" d="M184.3,269.5l-3.6,6.6c0,0,10.8,6.5,31.1,10.8c27,5.6,74.2,5.7,127-9.3l-17.3-12.7
		c0,0-54.3,15.7-103.8,10.9C206.1,274.6,194.8,273.3,184.3,269.5"/>
	<path fill="#C1C1C1" d="M452.3,366.1l0.2,19.4c0,0,18.3-3.2,23.8-17.8l-3.8-18.3L452.3,366.1z"/>
	<path fill="#E0E1DC" d="M57.5,229c0,0,16.5,5.1,21.6,30.6l23.3-15.5c0,0-5.1-22.4-28.5-23.5L57.5,229z"/>
	<path fill="#B22025" d="M227.6,162.4l-0.7,5.4c0,0,40.5,0.9,53.2-9c1.6-1.3,0.6-1,0.6-1l-27.6-2.8L227.6,162.4z"/>
	<path fill="#C1C1C1" d="M208.1,318.8l-14.3-30.4c0,0-43.7-5-53.2,18.4c-9.6,23.5,0.7,38.1,0.7,38.1l41,7.8c0,0-19.1-13.7-4.4-29.8
		C191.7,307.9,208.1,318.8,208.1,318.8"/>
	<path fill="#62615F" d="M138.9,329.9l3.4,14.4c0,0,41.7,9.2,41,7.8c-0.7-1.4-8.3-10.5-9.3-12.5C173,337.5,138.9,329.9,138.9,329.9"
		/>
	<path fill="#62615F" d="M139.1,316.5l33.2,16.8l3.8-8.8l-31.2-22.3C144.9,302.3,139.1,313.5,139.1,316.5"/>
	<path fill="#62615F" d="M148.8,298.4l29.7,23.8l6.5-5l-25.6-25.6C159.4,291.6,149.8,298,148.8,298.4"/>
	<path fill="#62615F" d="M165.1,289.6l21.1,26.6c0,0,10-1.4,10-2.4s-15.1-26.1-15.1-26.1S169.8,288.8,165.1,289.6"/>
	<path fill="#E0E1DC" d="M79.9,255.5l121.9-65.1c0,0,25.4,8.7,42,4.9l-5.9,5.1l83.6,64.4c0,0.2-52,20.6-136.6,5.7l-3.6,4.6
		c-0.7-1.3-29.6-16.5-53.7,18.7c-6.4,9.3-26.7-18.9-26.7-18.9S75.8,273.2,79.9,255.5"/>
	<path fill="#C1C1C1" d="M286.7,162.4l4.3,8.7l89.6-2.9l-14-11.9c0,0-6.7,2.5-11.8,0.5c-5.1-2-14.4-5.1-14.4-5.1L286.7,162.4z"/>
	<polygon fill="#62615F" points="304,159.4 305.2,169.8 325.7,169.3 322.4,156.6 	"/>
	<polygon fill="#62615F" points="336.5,154.3 340.1,170.3 358,168.6 356.8,158.4 343.2,152.5 	"/>
	<path fill="#C1C1C1" d="M370.2,147.4c-0.7,5.8-4.4,10.5-9.8,10.5c-5.4,0-9.8-4.7-9.8-10.5s4.4-10.5,9.8-10.5
		C365.8,136.9,371.1,139.6,370.2,147.4"/>
	<polygon fill="#62615F" points="160.7,194.6 167.6,209.1 189.7,197.2 185,187.4 	"/>
	<polygon fill="#B22025" points="360.9,145.4 359.6,148.2 359.8,151 440.5,175.1 442.7,169.5 	"/>
	<path fill="#353433" d="M456.2,167.8c0,0-6.3-3.5-8.9-1.4c-2.6,2-6.3,2.5-5.8,7.6c0.5,5.1,0.9,8.9,5,11c0,0-0.7-6.2,0.9-10.4
		C449.4,169.7,452.6,167.5,456.2,167.8"/>
	<polygon fill="#B22025" points="470.1,179 448,174.2 449.6,171.9 	"/>
	<polygon fill="#B22025" points="215.2,236.8 214.2,238.9 238.1,244.6 	"/>
	<path fill="#E0E1DC" d="M306.3,138.6l46.7,17.8c0,0-9.4-14.1,6.2-20.4l-48.7-9.4C310.5,126.7,301.2,129.9,306.3,138.6"/>
	<path fill="#E0E1DC" d="M192.5,286.8l-11.4-12c0,0-10.6-12.4-38.9,2.5c-30,15.8-12.1,58.9-8.2,65.6l8.8,1.6
		C142.9,344.5,117.2,285.7,192.5,286.8"/>
	<path fill="#E0E1DC" d="M395.5,321.1c0,3.7-8,6.6-17.8,6.6c-9.8,0-17.8-3-17.8-6.6s8-6.6,17.8-6.6
		C387.5,314.5,395.5,317.5,395.5,321.1"/>
	<path fill="#E0E1DC" d="M466.8,267.8c0,3.4-7,6.1-14.2,6.1c-7.2,0-13.1-2.7-13.1-6.1s5.9-5.6,13.2-5.6
		C460,262.1,466.8,264.4,466.8,267.8"/>
	<path fill="#E0E1DC" d="M109.1,194.8l72.8-20.4l11.8,9.7L130,204.5c0,0-1.9-4.5-9.1-5.5C113.7,197.9,109.1,194.8,109.1,194.8"/>
	<polygon fill="#E0E1DC" points="282.1,153.2 319.9,143.8 341.9,152.5 286.8,162.5 	"/>
	<path fill="#E0E1DC" d="M290.2,171.1l2.9,11.3l89.9,62.3c0,0,26.5-20.5,25.5-49.1l-28.7-27.3L290.2,171.1z"/>
	<polygon fill="#E0E1DC" points="248.6,193.8 292.7,180 416.8,268.3 392.1,286.5 	"/>
	<path fill="#62615F" d="M195.9,292.1l13,28.3c0,0,219.8,64.2,242.9,65.2l0.5-19.7L195.9,292.1z"/>
	<polyline fill="#62615F" points="414.7,291.9 509.7,341.5 513.3,320.5 421.8,274.1 427,281.6 414,291 	"/>
	<path fill="#62615F" d="M133.5,341.8c-2.6-5.9-12-22.8-6.8-45.8c0.3-1.3-27.7-21.2-27.7-21.2s-19.2-3.6-19.9-13.1
		c0,0,3.3,15.9-2.8,22.7l22.6,12.9L130,338"/>
	<path fill="#62615F" d="M80.1,266.1c0,15-1,20.5-7.1,19.2c-10.4-2.2-16.9-11.1-18.5-27.6c-1.5-15-0.4-27.1,4-28.1
		C64.6,228.1,80.1,251,80.1,266.1"/>
	<path fill="#62615F" d="M39.7,231.9c0,0,6.5,10.1,13.7,7.1l0.6,18.7l-13.2-7.9L39.7,231.9z"/>
	<polygon fill="#62615F" points="46.4,180.1 47,192.3 54.1,185.4 	"/>
	<path fill="#62615F" d="M185.6,156l-6.2,19.6c0,0,21.4,11.7,24.8,15.8c3.4,4.1,32.9,5.6,39.8,3.5c6.8-2,51-12.7,51-12.7
		s0.9-3,0-5.9c-0.5-1.7-2.5-3.3-3.2-4.8c-2.1-4.1-9.6-18.4-9.6-18.4s6.9,12.9-40.4,14.5C206.2,168.8,190.4,162.8,185.6,156"/>
	<path fill="#62615F" d="M396.2,231.4l22.8,5.2c0,0,5.5,3.4,2.5,9c-1,1.9-17.1-3.4-17.1-3.4l-1.4-4.6L396.2,231.4z"/>
	<path fill="#62615F" d="M72.9,205.5L72.2,221c0.6-0.2,23.9,0.1,29.7,23.5l-7.1-29L72.9,205.5z"/>
	<polygon fill="#B22025" points="265.8,197.5 386.7,275.8 402.1,264.8 292.5,189.6 	"/>
	<path fill="#B22025" d="M190.1,314.9c-2,0.2-21.8,11.1-16.2,24.7c7.3,17.3,23.4,14.9,32.5,5.4C211.5,339.7,218.2,311.5,190.1,314.9
		"/>
	
		<ellipse fill="none" stroke="#1D1D1B" stroke-width="2" stroke-linecap="round" stroke-linejoin="round" stroke-miterlimit="10" cx="233.9" cy="155.7" rx="48.2" ry="12"/>
	
		<line fill="none" stroke="#1D1D1B" stroke-width="2" stroke-linecap="round" stroke-linejoin="round" stroke-miterlimit="10" x1="178.9" y1="176.1" x2="185.7" y2="155.7"/>
	
		<polyline fill="none" stroke="#1D1D1B" stroke-width="2" stroke-linecap="round" stroke-linejoin="round" stroke-miterlimit="10" points="
		281.1,152.9 290.8,170.7 380.3,168.3 	"/>
	<path fill="none" stroke="#1D1D1B" stroke-width="2" stroke-linecap="round" stroke-linejoin="round" stroke-miterlimit="10" d="
		M57.5,229.4l16.4-8.7c0,0,22.9,1.5,28.5,23.4l-23.4,15.4C79.1,259.5,72.9,232.5,57.5,229.4z"/>
	<path fill="none" stroke="#1D1D1B" stroke-width="2" stroke-linecap="round" stroke-linejoin="round" stroke-miterlimit="10" d="
		M238,200.8c0.5-1.5,9.2-7.6,9.2-7.6l47.4-10.6l122.4,85.6l9.7,13.3l-29.6,22.2l-57.6-25.8L238,200.8z"/>
	<path fill="none" stroke="#1D1D1B" stroke-width="2" stroke-linecap="round" stroke-linejoin="round" stroke-miterlimit="10" d="
		M133.9,342.6c0,0-22.3-41.9,3.6-61.7c28.7-21.9,46.1-3.6,46.1-3.6"/>
	
		<polyline fill="none" stroke="#1D1D1B" stroke-width="2" stroke-linecap="round" stroke-linejoin="round" stroke-miterlimit="10" points="
		194.9,200.3 222.6,203.9 181.1,275.3 	"/>
	
		<polyline fill="none" stroke="#1D1D1B" stroke-width="2" stroke-linecap="round" stroke-linejoin="round" stroke-miterlimit="10" points="
		472.8,350.4 452.3,365.6 196,292.1 	"/>
	<path fill="none" stroke="#1D1D1B" stroke-width="2" stroke-linecap="round" stroke-linejoin="round" stroke-miterlimit="10" d="
		M182.9,276.8c0,0,40.8,29.8,156.6,1"/>
	
		<polyline fill="none" stroke="#1D1D1B" stroke-width="2" stroke-linecap="round" stroke-linejoin="round" stroke-miterlimit="10" points="
		247.2,193.2 392,286.8 397.1,303.6 	"/>
	<path fill="none" stroke="#1D1D1B" stroke-width="2" stroke-linecap="round" stroke-linejoin="round" stroke-miterlimit="10" d="
		M184.2,269.7c0,0,59,17.8,139-5.1"/>
	<path fill="none" stroke="#1D1D1B" stroke-width="2" stroke-linecap="round" stroke-linejoin="round" stroke-miterlimit="10" d="
		M383.6,244c0,0,24.6-17.7,25.6-48.8"/>
	<path fill="none" stroke="#1D1D1B" stroke-width="2" stroke-linecap="round" stroke-linejoin="round" stroke-miterlimit="10" d="
		M72.2,221c0-1.5,1.2-16.1,1.2-16.1l107.2-29.1l13.3,8.2l11.3,8.2L99.6,274.8c-17.9-1.3-20-12.7-20-12.7"/>
	
		<polyline fill="none" stroke="#1D1D1B" stroke-width="2" stroke-linecap="round" stroke-linejoin="round" stroke-miterlimit="10" points="
		193.9,184 94.6,215.6 102.3,244.2 203,190.3 	"/>
	
		<line fill="none" stroke="#1D1D1B" stroke-width="2" stroke-linecap="round" stroke-linejoin="round" stroke-miterlimit="10" x1="53.9" y1="185.5" x2="180.6" y2="170.2"/>
	
		<line fill="none" stroke="#1D1D1B" stroke-width="2" stroke-linecap="round" stroke-linejoin="round" stroke-miterlimit="10" x1="281.6" y1="153.9" x2="331.3" y2="140.7"/>
	
		<line fill="none" stroke="#1D1D1B" stroke-width="2" stroke-linecap="round" stroke-linejoin="round" stroke-miterlimit="10" x1="286.2" y1="162.6" x2="342.8" y2="152.7"/>
	
		<polyline fill="none" stroke="#1D1D1B" stroke-width="2" stroke-linecap="round" stroke-linejoin="round" stroke-miterlimit="10" points="
		304,160 305.2,170.6 326.2,169.7 322.9,156.6 336.4,154.7 339.8,169.6 358.5,168.7 356,157.6 	"/>
	
		<line fill="none" stroke="#1D1D1B" stroke-width="2" stroke-linecap="round" stroke-linejoin="round" stroke-miterlimit="10" x1="112.2" y1="222.4" x2="117.3" y2="235.5"/>
	
		<line fill="none" stroke="#1D1D1B" stroke-width="2" stroke-linecap="round" stroke-linejoin="round" stroke-miterlimit="10" x1="134.6" y1="203" x2="137.8" y2="212.7"/>
	
		<line fill="none" stroke="#1D1D1B" stroke-width="2" stroke-linecap="round" stroke-linejoin="round" stroke-miterlimit="10" x1="160.7" y1="194.6" x2="167.2" y2="209"/>
	
		<line fill="none" stroke="#1D1D1B" stroke-width="2" stroke-linecap="round" stroke-linejoin="round" stroke-miterlimit="10" x1="184.7" y1="187" x2="189.8" y2="197.6"/>
	
		<line fill="none" stroke="#1D1D1B" stroke-width="2" stroke-linecap="round" stroke-linejoin="round" stroke-miterlimit="10" x1="191.6" y1="285.2" x2="446.7" y2="361.4"/>
	<path fill="none" stroke="#1D1D1B" stroke-width="2" stroke-linecap="round" stroke-linejoin="round" stroke-miterlimit="10" d="
		M184.4,351.8c0,0-21.3-13.3-5.4-29.6c15.9-16.3,29.7-2,29.7-2"/>
	<path fill="none" stroke="#1D1D1B" stroke-width="2" stroke-linecap="round" stroke-linejoin="round" stroke-miterlimit="10" d="
		M142.6,343.6c0,0-25-59.5,50.9-56.1"/>
	<path fill="none" stroke="#1D1D1B" stroke-width="2" stroke-linecap="round" stroke-linejoin="round" stroke-miterlimit="10" d="
		M57.5,229.4c-2-0.7-6.7,13.8-2.7,30.9"/>
	<path fill="none" stroke="#1D1D1B" stroke-width="2" stroke-linecap="round" stroke-linejoin="round" stroke-miterlimit="10" d="
		M74.6,285.5c1-0.3,11.3-2,3.4-29.9"/>
	
		<line fill="none" stroke="#1D1D1B" stroke-width="2" stroke-linecap="round" stroke-linejoin="round" stroke-miterlimit="10" x1="73.4" y1="204.9" x2="94.8" y2="215.1"/>
	
		<line fill="none" stroke="#1D1D1B" stroke-width="2" stroke-linecap="round" stroke-linejoin="round" stroke-miterlimit="10" x1="46.2" y1="179.9" x2="47.1" y2="192.8"/>
	<path fill="none" stroke="#1D1D1B" stroke-width="2" stroke-linecap="round" stroke-linejoin="round" stroke-miterlimit="10" d="
		M370.1,148.3c0.2-1,0.3-1.9,0.3-2.9c0-6.2-4.9-9.1-9.8-9.1c-4.9,0-10.7,5.4-10.7,11.6c0,6.2,5.8,11,10.7,11c2.1,0,5.4-2,6.8-5.1"/>
	<path fill="none" stroke="#1D1D1B" stroke-width="2" stroke-linecap="round" stroke-linejoin="round" stroke-miterlimit="10" d="
		M365.1,136.9c0,0-49.7-9.3-53.9-10.2c-4.2-0.9-10.1,4.9-4.8,11.8l51.6,20.2"/>
	<path fill="none" stroke="#1D1D1B" stroke-width="2" stroke-linecap="round" stroke-linejoin="round" stroke-miterlimit="10" d="
		M361.3,152c-1,0-1.9-1.5-1.9-3.4s0.8-3.4,1.9-3.4"/>
	<path fill="none" stroke="#1D1D1B" stroke-width="2" stroke-linecap="round" stroke-linejoin="round" stroke-miterlimit="10" d="
		M361.3,145.1l81.9,24.5c0,0-3.3,2.2-2,5.6"/>
	
		<line fill="none" stroke="#1D1D1B" stroke-width="2" stroke-linecap="round" stroke-linejoin="round" stroke-miterlimit="10" x1="441.7" y1="175.3" x2="361.3" y2="152"/>
	
		<polygon fill="none" stroke="#1D1D1B" stroke-width="2" stroke-linecap="round" stroke-linejoin="round" stroke-miterlimit="10" points="
		470.4,179.3 448.9,172.2 447.9,173.9 	"/>
	<path fill="none" stroke="#1D1D1B" stroke-width="2" stroke-linecap="round" stroke-linejoin="round" stroke-miterlimit="10" d="
		M446,167.8c0,0-7.4,1.3-3.5,9.3c0,0-1.3,4.7,4.2,7.5c0,0-2.6-18.5,11.3-16.9C457.1,167.7,447.7,163.5,446,167.8z"/>
	
		<line fill="none" stroke="#1D1D1B" stroke-width="2" stroke-linecap="round" stroke-linejoin="round" stroke-miterlimit="10" x1="252" y1="154.9" x2="281.6" y2="157.7"/>
	
		<line fill="none" stroke="#1D1D1B" stroke-width="2" stroke-linecap="round" stroke-linejoin="round" stroke-miterlimit="10" x1="227.4" y1="167.8" x2="227.7" y2="161.4"/>
	<path fill="none" stroke="#1D1D1B" stroke-width="2" stroke-linecap="round" stroke-linejoin="round" stroke-miterlimit="10" d="
		M227.6,162.3l24.8-7.4C235.3,140.3,227.7,162.5,227.6,162.3"/>
	
		<line fill="none" stroke="#1D1D1B" stroke-width="2" stroke-linecap="round" stroke-linejoin="round" stroke-miterlimit="10" x1="317.7" y1="261.2" x2="326.7" y2="244.4"/>
	
		<line fill="none" stroke="#1D1D1B" stroke-width="2" stroke-linecap="round" stroke-linejoin="round" stroke-miterlimit="10" x1="311.8" y1="256.9" x2="320.7" y2="241"/>
	
		<line fill="none" stroke="#1D1D1B" stroke-width="2" stroke-linecap="round" stroke-linejoin="round" stroke-miterlimit="10" x1="327.6" y1="268.8" x2="338.3" y2="251.9"/>
	
		<line fill="none" stroke="#1D1D1B" stroke-width="2" stroke-linecap="round" stroke-linejoin="round" stroke-miterlimit="10" x1="139.2" y1="329.7" x2="174.4" y2="339.2"/>
	
		<line fill="none" stroke="#1D1D1B" stroke-width="2" stroke-linecap="round" stroke-linejoin="round" stroke-miterlimit="10" x1="139.2" y1="316.8" x2="173.4" y2="333.4"/>
	
		<line fill="none" stroke="#1D1D1B" stroke-width="2" stroke-linecap="round" stroke-linejoin="round" stroke-miterlimit="10" x1="145" y1="302.5" x2="176.1" y2="324.9"/>
	
		<line fill="none" stroke="#1D1D1B" stroke-width="2" stroke-linecap="round" stroke-linejoin="round" stroke-miterlimit="10" x1="148.8" y1="298.8" x2="179" y2="322.2"/>
	
		<line fill="none" stroke="#1D1D1B" stroke-width="2" stroke-linecap="round" stroke-linejoin="round" stroke-miterlimit="10" x1="159.3" y1="292.1" x2="184.7" y2="316.9"/>
	
		<line fill="none" stroke="#1D1D1B" stroke-width="2" stroke-linecap="round" stroke-linejoin="round" stroke-miterlimit="10" x1="166" y1="290.3" x2="186" y2="316.6"/>
	
		<line fill="none" stroke="#1D1D1B" stroke-width="2" stroke-linecap="round" stroke-linejoin="round" stroke-miterlimit="10" x1="180.8" y1="287.3" x2="197" y2="314.6"/>
	
		<line fill="none" stroke="#1D1D1B" stroke-width="2" stroke-linecap="round" stroke-linejoin="round" stroke-miterlimit="10" x1="193.6" y1="287.5" x2="208.8" y2="320.2"/>
	
		<ellipse fill="none" stroke="#1D1D1B" stroke-width="2" stroke-linecap="round" stroke-linejoin="round" stroke-miterlimit="10" cx="195.3" cy="333.1" rx="6.5" ry="7.8"/>
	
		<ellipse fill="none" stroke="#1D1D1B" stroke-width="2" stroke-linecap="round" stroke-linejoin="round" stroke-miterlimit="10" cx="377.6" cy="321.1" rx="17.7" ry="6.6"/>
	
		<ellipse fill="none" stroke="#1D1D1B" stroke-width="2" stroke-linecap="round" stroke-linejoin="round" stroke-miterlimit="10" cx="453.2" cy="268" rx="13.5" ry="5.6"/>
	
		<line fill="none" stroke="#1D1D1B" stroke-width="2" stroke-linecap="round" stroke-linejoin="round" stroke-miterlimit="10" x1="420.2" y1="272.9" x2="513.2" y2="320.5"/>
	
		<line fill="none" stroke="#1D1D1B" stroke-width="2" stroke-linecap="round" stroke-linejoin="round" stroke-miterlimit="10" x1="513.2" y1="320.5" x2="530.2" y2="307.5"/>
	
		<line fill="none" stroke="#1D1D1B" stroke-width="2" stroke-linecap="round" stroke-linejoin="round" stroke-miterlimit="10" x1="513.2" y1="320.5" x2="510.4" y2="342.2"/>
	<path fill="none" stroke="#1D1D1B" stroke-width="2" stroke-linecap="round" stroke-linejoin="round" stroke-miterlimit="10" d="
		M394.6,252.5c0,0,27-19.7,25-47.9l100.6,96"/>
	
		<polygon fill="none" stroke="#1D1D1B" stroke-width="2" stroke-linecap="round" stroke-linejoin="round" stroke-miterlimit="10" points="
		265.7,197.4 292.7,189.6 402.4,264.7 387,276 	"/>
	
		<line fill="none" stroke="#1D1D1B" stroke-width="2" stroke-linecap="round" stroke-linejoin="round" stroke-miterlimit="10" x1="392" y1="286.8" x2="416.9" y2="268.2"/>
	
		<line fill="none" stroke="#1D1D1B" stroke-width="2" stroke-linecap="round" stroke-linejoin="round" stroke-miterlimit="10" x1="99.6" y1="274.8" x2="98.5" y2="296.2"/>
	
		<line fill="none" stroke="#1D1D1B" stroke-width="2" stroke-linecap="round" stroke-linejoin="round" stroke-miterlimit="10" x1="99.6" y1="274.8" x2="126.2" y2="295.7"/>
	
		<polyline fill="none" stroke="#1D1D1B" stroke-width="2" stroke-linecap="round" stroke-linejoin="round" stroke-miterlimit="10" points="
		332.3,279.4 465.3,342.7 446.7,355.6 446.8,360.9 466.3,346.8 465.5,343.1 	"/>
	<path fill="none" stroke="#1D1D1B" stroke-width="2" stroke-linecap="round" stroke-linejoin="round" stroke-miterlimit="10" d="
		M205.2,192.2c0,0,24.1,6.6,40.7,2"/>
	
		<line fill="none" stroke="#1D1D1B" stroke-width="2" stroke-linecap="round" stroke-linejoin="round" stroke-miterlimit="10" x1="182.9" y1="276.8" x2="193.6" y2="287.5"/>
	<path fill="none" stroke="#1D1D1B" stroke-width="2" stroke-linecap="round" stroke-linejoin="round" stroke-miterlimit="10" d="
		M39.6,229.4c0,0,3.1,11.7,14.1,9.7"/>
	
		<line fill="none" stroke="#1D1D1B" stroke-width="2" stroke-linecap="round" stroke-linejoin="round" stroke-miterlimit="10" x1="446.7" y1="355.6" x2="192.9" y2="282.2"/>
	
		<line fill="none" stroke="#1D1D1B" stroke-width="2" stroke-linecap="round" stroke-linejoin="round" stroke-miterlimit="10" x1="452.3" y1="385.5" x2="452.3" y2="365.6"/>
	
		<polygon fill="none" stroke="#1D1D1B" stroke-width="2" stroke-linecap="round" stroke-linejoin="round" stroke-miterlimit="10" points="
		520,301.2 506.8,311.1 507,316.5 519.8,306.5 	"/>
	
		<line fill="none" stroke="#1D1D1B" stroke-width="2" stroke-linecap="round" stroke-linejoin="round" stroke-miterlimit="10" x1="416.9" y1="268.2" x2="506.8" y2="311.1"/>
	<path fill="none" stroke="#1D1D1B" stroke-width="2" stroke-linecap="round" stroke-linejoin="round" stroke-miterlimit="10" d="
		M227.7,161.4c0,0-9.2-2-7.9-6.1c1.4-4,10.7-7.9,22.2-5.3"/>
	<path fill="none" stroke="#1D1D1B" stroke-width="2" stroke-linecap="round" stroke-linejoin="round" stroke-miterlimit="10" d="
		M71.3,183.3c0,0,75-53.1,216.5-41.6"/>
	<path fill="#C1C1C1" d="M201.4,333c0,3.9-2.6,7.1-5.8,7.1c-3.2,0-5.8-3.2-5.8-7.1c0-3.9,2.6-7.1,5.8-7.1
		C198.8,325.9,201.4,329.1,201.4,333"/>
	<path fill="none" stroke="#1D1D1B" stroke-width="2" stroke-linecap="round" stroke-linejoin="round" stroke-miterlimit="10" d="
		M290.4,170.3c0,0,6.7,4.6,4.2,12.3"/>
	
		<line fill="none" stroke="#1D1D1B" stroke-width="2" stroke-linecap="round" stroke-linejoin="round" stroke-miterlimit="10" x1="121.2" y1="144.3" x2="146.7" y2="152"/>
	
		<line fill="none" stroke="#1D1D1B" stroke-width="2" stroke-linecap="round" stroke-linejoin="round" stroke-miterlimit="10" x1="132.6" y1="141.5" x2="150.7" y2="151.2"/>
	
		<line fill="none" stroke="#1D1D1B" stroke-width="2" stroke-linecap="round" stroke-linejoin="round" stroke-miterlimit="10" x1="136.8" y1="140.8" x2="154.1" y2="150.5"/>
	
		<line fill="none" stroke="#1D1D1B" stroke-width="2" stroke-linecap="round" stroke-linejoin="round" stroke-miterlimit="10" x1="153.5" y1="137.4" x2="160.6" y2="148.8"/>
	
		<line fill="none" stroke="#1D1D1B" stroke-width="2" stroke-linecap="round" stroke-linejoin="round" stroke-miterlimit="10" x1="157.7" y1="136.6" x2="162.2" y2="148.2"/>
	
		<line fill="none" stroke="#1D1D1B" stroke-width="2" stroke-linecap="round" stroke-linejoin="round" stroke-miterlimit="10" x1="169.4" y1="135.5" x2="164.6" y2="148.2"/>
	<path fill="#C1C1C1" d="M297.5,291.3c0,0,3.7,8.5,0.8,11.1c-2.9,2.6,16,4.3,22.4-1.5l-5.2-14.1
		C315.5,286.9,310.1,294.2,297.5,291.3"/>
	<path fill="none" stroke="#1D1D1B" stroke-width="2" stroke-linecap="round" stroke-linejoin="round" stroke-miterlimit="10" d="
		M281.1,273.5l17.4-3.1l16.7,16.4c0,0-1.4,5.8-17.8,4.4L281.1,273.5z"/>
	<path fill="none" stroke="#1D1D1B" stroke-width="2" stroke-linecap="round" stroke-linejoin="round" stroke-miterlimit="10" d="
		M296.8,290.9c5.8,6.5,1,11.9,1,11.9l-12.3-16.3c0,0,0.7-6.5-5.1-12.9"/>
	<path fill="none" stroke="#1D1D1B" stroke-width="2" stroke-linecap="round" stroke-linejoin="round" stroke-miterlimit="10" d="
		M297.8,302.8c0,0,8.6,6.1,22.5-1.5"/>
	<path fill="none" stroke="#1D1D1B" stroke-width="2" stroke-linecap="round" stroke-linejoin="round" stroke-miterlimit="10" d="
		M315.3,286.9c0,0,5,10.6,5,14.5"/>
	<polygon fill="#6E75AF" points="307.6,253.7 316.6,237.9 320.4,240.2 312.2,257.1 	"/>
	
		<polygon fill="none" stroke="#1D1D1B" stroke-width="2" stroke-linecap="round" stroke-linejoin="round" stroke-miterlimit="10" points="
		307.6,253.7 316.6,237.9 320.4,240.2 312.2,257.1 	"/>
	<polygon fill="#6E75AF" points="317.2,260.8 326.7,245.2 330.5,247 322.1,265 	"/>
	
		<polygon fill="none" stroke="#1D1D1B" stroke-width="2" stroke-linecap="round" stroke-linejoin="round" stroke-miterlimit="10" points="
		317.2,260.8 326.7,245.2 330.5,247 322.1,265 	"/>
	<polygon fill="#6E75AF" points="327.8,269 337.8,252.5 341.2,254.5 332.7,272.9 	"/>
	
		<polygon fill="none" stroke="#1D1D1B" stroke-width="2" stroke-linecap="round" stroke-linejoin="round" stroke-miterlimit="10" points="
		327.8,269 337.8,252.5 341.2,254.5 332.7,272.9 	"/>
	<path fill="#6E75AF" d="M195.5,263.9l35.7-55.8l-2.1,60.4C229.1,268.4,203.4,267.2,195.5,263.9"/>
	<path fill="none" stroke="#1D1D1B" stroke-width="2" stroke-linecap="round" stroke-linejoin="round" stroke-miterlimit="10" d="
		M195.5,263.9l35.7-55.8l-2.1,60.4C229.1,268.4,203.4,267.2,195.5,263.9z"/>
	<path fill="#6E75AF" d="M232.4,207.9l71.3,52.7c-7.7,3.4-33.8,6.9-33.8,6.9L232.4,207.9z"/>
	<path fill="none" stroke="#1D1D1B" stroke-width="2" stroke-linecap="round" stroke-linejoin="round" stroke-miterlimit="10" d="
		M232.4,207.9l71.3,52.7c-7.7,3.4-33.8,6.9-33.8,6.9L232.4,207.9z"/>
	<path fill="#B22025" d="M229.1,268.4c0,0,33.8,1.1,40.8-0.9l-38.2-59.2L229.1,268.4z"/>
	<path fill="none" stroke="#1D1D1B" stroke-width="2" stroke-linecap="round" stroke-linejoin="round" stroke-miterlimit="10" d="
		M229.1,268.4c0,0,33.8,1.1,40.8-0.9l-38.2-59.2L229.1,268.4z"/>
	<path fill="#6E75AF" d="M307.9,181.1c0.8,0.3,78.9,32.1,79.4,32.1c0.5,0-6.2,16.8-7.7,18.6L307.9,181.1z"/>
	<path fill="none" stroke="#1D1D1B" stroke-width="2" stroke-linecap="round" stroke-linejoin="round" stroke-miterlimit="10" d="
		M307.9,181.1c0.8,0.3,78.9,32.1,79.4,32.1s-6.2,16.8-7.7,18.6L307.9,181.1z"/>
	<path fill="#6E75AF" d="M307.9,181.1l79.4,6.6c0,0-3.1-11-6.2-12.5L307.9,181.1z"/>
	<path fill="none" stroke="#1D1D1B" stroke-width="2" stroke-linecap="round" stroke-linejoin="round" stroke-miterlimit="10" d="
		M307.9,181.1l79.4,6.6c0,0-3.1-11-6.2-12.5L307.9,181.1z"/>
	<path fill="#B22025" d="M387.3,213.2c0,0,1.2-8.2,1.5-12.4c0.3-4.3-1.5-13.1-1.5-13.1l-79-6.9L387.3,213.2z"/>
	<path fill="none" stroke="#1D1D1B" stroke-width="2" stroke-linecap="round" stroke-linejoin="round" stroke-miterlimit="10" d="
		M387.3,213.2c0,0,1.2-8.2,1.5-12.4c0.3-4.3-1.5-13.1-1.5-13.1l-79-6.9L387.3,213.2z"/>
	<path fill="#6E75AF" d="M69,164.1l25,6.5l25.3-9.9L103,149.4C103,149.4,72.9,161,69,164.1"/>
	<path fill="none" stroke="#1D1D1B" stroke-width="2" stroke-linecap="round" stroke-linejoin="round" stroke-miterlimit="10" d="
		M69,164.1l25,6.5l25.3-9.9L103,149.4C103,149.4,72.9,161,69,164.1z"/>
	<path fill="#B22025" d="M140.9,140.1l12.4,10.6l-17.6,4.6l-16.5,5.4c0,0-15.2-10.9-16.2-11.2C102,149.1,140.9,140.1,140.9,140.1"/>
	<path fill="none" stroke="#1D1D1B" stroke-width="2" stroke-linecap="round" stroke-linejoin="round" stroke-miterlimit="10" d="
		M140.9,140.1l12.4,10.6l-17.6,4.6l-16.5,5.4c0,0-15.2-10.9-16.2-11.2C102,149.1,140.9,140.1,140.9,140.1z"/>
	<path fill="#6E75AF" d="M136.8,140.8l14.3,10.2c1-0.3,27.9-5.5,27.9-5.5l3.1-11.5l-20.9,2.6L136.8,140.8z"/>
	<path fill="none" stroke="#1D1D1B" stroke-width="2" stroke-linecap="round" stroke-linejoin="round" stroke-miterlimit="10" d="
		M136.8,140.8l14.3,10.2c1-0.3,27.9-5.5,27.9-5.5l3.1-11.5l-20.9,2.6L136.8,140.8z"/>
	<path fill="#B22025" d="M183.2,133.8c0,0-4.9,11.5-3.5,11.5c1.4,0,31.9-4,31.9-4l0.4-9.2l-30.6,2"/>
	<path fill="none" stroke="#1D1D1B" stroke-width="2" stroke-linecap="round" stroke-linejoin="round" stroke-miterlimit="10" d="
		M183.2,133.8c0,0-4.9,11.5-3.5,11.5c1.4,0,31.9-4,31.9-4l0.4-9.2l-30.6,2"/>
	<path fill="#6E75AF" d="M212.6,132.2l-1,9.2c2.5-1,29.6-1.7,29.6-1.7l4.4-7.1c0.1-0.1-18-0.5-33.1-0.6"/>
	<path fill="none" stroke="#1D1D1B" stroke-width="2" stroke-linecap="round" stroke-linejoin="round" stroke-miterlimit="10" d="
		M212.6,132.2l-1,9.2c2.5-1,29.6-1.7,29.6-1.7l4.4-7.1c0.1-0.1-18-0.5-33.1-0.6"/>
	<path fill="none" stroke="#1D1D1B" stroke-width="2" stroke-linecap="round" stroke-linejoin="round" stroke-miterlimit="10" d="
		M46.2,179.9c-0.2,0,59.9-60.2,231.8-45.4l11.3,8.2l17.9,5.6c0,0,30.3-13.8,45.1-4.1c14.9,9.7,177.9,163.3,177.9,163.3
		s6.8,15,1.4,19c-10.3,7.7-21.2,15.6-21.2,15.6l-96.7-51.3l-6.5,5.8l8.3,7.1l-12.6,9.1l62.4,29.4l0,0.4l1,4.1l6.5,3.6l3.4,17.7
		c0,0-8,18.9-27.5,17.4c-19.5-1.5-240-65.3-240-65.3s12.8,30.1-22,32.1l-52.8-9.7l-36.4-46.9L78,285c0,0-21,4.6-23.6-27.5l-13.3-8.2
		l-1.5-19.9c0,0-3.6-31.1,14.4-43.9L46.2,179.9z"/>
	<path fill="#B22025" d="M69.2,164.3c0,0-19.1,10.7-22.5,15.6l7.2,5.7l16.5-3c0,0,21.1-11.4,23.5-11.9
		C93.9,170.6,71,164.3,69.2,164.3"/>
	<path fill="none" stroke="#1D1D1B" stroke-width="2" stroke-linecap="round" stroke-linejoin="round" stroke-miterlimit="10" d="
		M69.2,164.3c0,0-19.1,10.7-22.5,15.6l7.2,5.7l16.5-3c0,0,21.1-11.4,23.5-11.9C93.9,170.6,71,164.3,69.2,164.3z"/>
	<polygon fill="#B22025" points="245.7,132.7 241.7,139.9 286.8,141.1 278.4,134.8 	"/>
	
		<polygon fill="none" stroke="#1D1D1B" stroke-width="2" stroke-linecap="round" stroke-linejoin="round" stroke-miterlimit="10" points="
		245.7,132.7 241.7,139.9 286.8,141.1 278.4,134.8 	"/>
	<path fill="#C1C1C1" d="M130.3,210c-0.3,6.4-4.8,14.1-10.8,14.1c-5.9,0-12-8.1-12-14.4c0-6.4,6-11.2,12-11.2
		C125.6,198.4,130.6,203.6,130.3,210"/>
	<path fill="#353433" d="M224,231.8c0,0-9.6-3.3-11.4-0.3c0,0-7.3,2.3-5.8,7.4l1,2.8c0,0,1.4,8.1,5.5,9.1
		C213.3,250.9,208.3,233.8,224,231.8"/>
	<polygon fill="#B22025" points="119.4,207.6 117.9,212.2 119.6,215.7 207,240.8 206.7,237.6 208.5,234.5 	"/>
	<path fill="none" stroke="#1D1D1B" stroke-width="2" stroke-linecap="round" stroke-linejoin="round" stroke-miterlimit="10" d="
		M129.6,211c0.2-1,0.3-2.1,0.3-3.1c0-6.8-5.3-9.9-10.6-9.9c-5.3,0-11.6,5.8-11.6,12.6c0,6.8,5.8,13.1,11.1,13.6c2.5,0.2,8-2,8.9-7"
		/>
	<path fill="none" stroke="#1D1D1B" stroke-width="2" stroke-linecap="round" stroke-linejoin="round" stroke-miterlimit="10" d="
		M124.3,198.6c0,0-54-10.1-58.5-11.1c-4.5-1-11,5.3-5.2,12.8l55.6,23.6"/>
	<path fill="none" stroke="#1D1D1B" stroke-width="2" stroke-linecap="round" stroke-linejoin="round" stroke-miterlimit="10" d="
		M120.1,215.1c-1.1,0-2.1-1.7-2.1-3.7c0-2.1,0.9-3.7,2.1-3.7"/>
	<path fill="none" stroke="#1D1D1B" stroke-width="2" stroke-linecap="round" stroke-linejoin="round" stroke-miterlimit="10" d="
		M120.1,207.6l89,26.6c0,0-3.6,2.4-2.2,6.1"/>
	
		<line fill="none" stroke="#1D1D1B" stroke-width="2" stroke-linecap="round" stroke-linejoin="round" stroke-miterlimit="10" x1="207.5" y1="240.5" x2="120.1" y2="215.1"/>
	
		<polygon fill="none" stroke="#1D1D1B" stroke-width="2" stroke-linecap="round" stroke-linejoin="round" stroke-miterlimit="10" points="
		238.6,244.7 215.3,237.1 214.3,238.8 	"/>
	<path fill="none" stroke="#1D1D1B" stroke-width="2" stroke-linecap="round" stroke-linejoin="round" stroke-miterlimit="10" d="
		M212.1,232.3c0,0-8,1.4-3.8,10.1c0,0-1.4,5.1,4.6,8.2c0,0-2.8-20.1,12.3-18.4C224.2,232.2,214,227.6,212.1,232.3z"/>
	<path fill="#E0E1DC" d="M67.6,201.1l41.4,19c0,0-5.5-19,5.1-23.1l-12-1.7L67.6,201.1z"/>
	<path fill="#E0E1DC" d="M314.8,140.6l36.2,14.6c0,0-4.9-5.1,1.1-15.3l-5.9-3.7c0,0-27,0.3-26.3,0.3
		C320.6,136.5,314.8,140.6,314.8,140.6"/>
	<path fill="#C1C1C1" d="M355.6,139.7c0,0-4.9,2.4-4.9,7.6c-0.1,5.2,9.2,9.9,9.2,9.9l6.4-3.2c0,0-12.1-1.9-6.1-8.9
		C367.3,136.9,355.6,139.7,355.6,139.7"/>
	<path fill="#E0E1DC" d="M280.9,273.9l16.2,17.8c0,0,17.9,0.5,17.9-4.6L298.3,270L280.9,273.9z"/>
	<path fill="none" stroke="#1D1D1B" stroke-width="2" stroke-linecap="round" stroke-linejoin="round" stroke-miterlimit="10" d="
		M280.9,273.9l16.2,17.8c0,0,17.9,0.5,17.9-4.6L298.3,270L280.9,273.9z"/>
	<path fill="#62615F" d="M280.9,273.7l16.5,17.5c0,0,3.5,7.8,1.1,10.9c-1.5,1.9-12.7-15.5-12.7-15.5S282.9,275,280.9,273.7"/>
	<path fill="none" stroke="#1D1D1B" stroke-width="2" stroke-linecap="round" stroke-linejoin="round" stroke-miterlimit="10" d="
		M280.9,273.7l16.5,17.5c0,0,3.5,7.8,1.1,10.9c-1.5,1.9-12.7-15.5-12.7-15.5S282.9,275,280.9,273.7z"/>
	<path fill="#C1C1C1" d="M418.8,236.6c0,0,6,4.4,1.8,10c0,0,11.8-3.1,13.8-10.1c0,0-3.1-5-5.1-6
		C429.3,230.4,421.6,236.5,418.8,236.6"/>
	<path fill="#62615F" d="M418.7,236.8c6.9,3.2,1.8,9.7,1.8,9.7l-16-4.9c0,0-1.9-6.7-8.9-9.9"/>
	<path fill="none" stroke="#1D1D1B" stroke-width="2" stroke-linecap="round" stroke-linejoin="round" stroke-miterlimit="10" d="
		M418.7,236.8c6.9,3.2,1.8,9.7,1.8,9.7l-16-4.9c0,0-1.9-6.7-8.9-9.9"/>
	<path fill="none" stroke="#1D1D1B" stroke-width="2" stroke-linecap="round" stroke-linejoin="round" stroke-miterlimit="10" d="
		M434.9,237.3c-8.6,10.9-14.4,9.2-14.4,9.2"/>
	<path fill="#62615F" d="M429,229.9c0.5,0.1,4.7,4.3,5.9,7.4"/>
	<path fill="none" stroke="#1D1D1B" stroke-width="2" stroke-linecap="round" stroke-linejoin="round" stroke-miterlimit="10" d="
		M429,229.9c0.5,0.1,4.7,4.3,5.9,7.4"/>
	<path fill="#E0E1DC" d="M396.8,231.5l22.9,5.3c0,0,10.1-3.5,9.9-6.8l-27.9-8.4l-6.1,9.1"/>
	<path fill="none" stroke="#1D1D1B" stroke-width="2" stroke-linecap="round" stroke-linejoin="round" stroke-miterlimit="10" d="
		M396.8,231.5l22.9,5.3c0,0,10.1-3.5,9.9-6.8l-27.9-8.4l-6.1,9.1"/>
	<polygon fill="#E0E1DC" points="299.7,149.7 320,144.3 324.3,147.6 306.8,152.1 	"/>
</g>
</svg>
