<svg width="360" height="500">
  <line x1="10" y1="0" x2="10" y2="3" stroke="black" stroke-width="0.5" />
  <line x1="20" y1="0" x2="20" y2="3" stroke="black" stroke-width="0.5" />
  <line x1="30" y1="0" x2="30" y2="3" stroke="black" stroke-width="0.5" />
  <line x1="40" y1="0" x2="40" y2="3" stroke="black" stroke-width="0.5" />
  <line x1="50" y1="0" x2="50" y2="7" stroke="black" stroke-width="0.5" />
  <line x1="60" y1="0" x2="60" y2="3" stroke="black" stroke-width="0.5" />
  <line x1="70" y1="0" x2="70" y2="3" stroke="black" stroke-width="0.5" />
  <line x1="80" y1="0" x2="80" y2="3" stroke="black" stroke-width="0.5" />
  <line x1="90" y1="0" x2="90" y2="3" stroke="black" stroke-width="0.5" />
  <line x1="100" y1="0" x2="100" y2="10" stroke="black" stroke-width="0.5" />
  <line x1="110" y1="0" x2="110" y2="3" stroke="black" stroke-width="0.5" />
  <line x1="120" y1="0" x2="120" y2="3" stroke="black" stroke-width="0.5" />
  <line x1="130" y1="0" x2="130" y2="3" stroke="black" stroke-width="0.5" />
  <line x1="140" y1="0" x2="140" y2="3" stroke="black" stroke-width="0.5" />
  <line x1="150" y1="0" x2="150" y2="7" stroke="black" stroke-width="0.5" />
  <line x1="160" y1="0" x2="160" y2="3" stroke="black" stroke-width="0.5" />
  <line x1="170" y1="0" x2="170" y2="3" stroke="black" stroke-width="0.5" />
  <line x1="180" y1="0" x2="180" y2="3" stroke="black" stroke-width="0.5" />
  <line x1="190" y1="0" x2="190" y2="3" stroke="black" stroke-width="0.5" />
  <line x1="200" y1="0" x2="200" y2="10" stroke="black" stroke-width="0.5" />
  <line x1="210" y1="0" x2="210" y2="3" stroke="black" stroke-width="0.5" />
  <line x1="220" y1="0" x2="220" y2="3" stroke="black" stroke-width="0.5" />
  <line x1="230" y1="0" x2="230" y2="3" stroke="black" stroke-width="0.5" />
  <line x1="240" y1="0" x2="240" y2="3" stroke="black" stroke-width="0.5" />
  <line x1="250" y1="0" x2="250" y2="7" stroke="black" stroke-width="0.5" />
  <line x1="260" y1="0" x2="260" y2="3" stroke="black" stroke-width="0.5" />
  <line x1="270" y1="0" x2="270" y2="3" stroke="black" stroke-width="0.5" />
  <line x1="280" y1="0" x2="280" y2="3" stroke="black" stroke-width="0.5" />
  <line x1="290" y1="0" x2="290" y2="3" stroke="black" stroke-width="0.5" />
  <line x1="300" y1="0" x2="300" y2="3" stroke="black" stroke-width="0.5" />
  <line x1="310" y1="0" x2="310" y2="10" stroke="black" stroke-width="0.5" />
  <line x1="320" y1="0" x2="320" y2="3" stroke="black" stroke-width="0.5" />
  <line x1="330" y1="0" x2="330" y2="3" stroke="black" stroke-width="0.5" />
  <line x1="340" y1="0" x2="340" y2="3" stroke="black" stroke-width="0.5" />
  <line x1="350" y1="0" x2="350" y2="3" stroke="black" stroke-width="0.5" />
  <line y1="10" x1="0" y2="10" x2="3" stroke="black" stroke-xidth="0.5" />
  <line y1="20" x1="0" y2="20" x2="3" stroke="black" stroke-xidth="0.5" />
  <line y1="30" x1="0" y2="30" x2="3" stroke="black" stroke-xidth="0.5" />
  <line y1="40" x1="0" y2="40" x2="3" stroke="black" stroke-xidth="0.5" />
  <line y1="50" x1="0" y2="50" x2="7" stroke="black" stroke-xidth="0.5" />
  <line y1="60" x1="0" y2="60" x2="3" stroke="black" stroke-xidth="0.5" />
  <line y1="70" x1="0" y2="70" x2="3" stroke="black" stroke-xidth="0.5" />
  <line y1="80" x1="0" y2="80" x2="3" stroke="black" stroke-xidth="0.5" />
  <line y1="90" x1="0" y2="90" x2="3" stroke="black" stroke-xidth="0.5" />
  <line y1="100" x1="0" y2="100" x2="10" stroke="black" stroke-xidth="0.5" />
  <line y1="110" x1="0" y2="110" x2="3" stroke="black" stroke-xidth="0.5" />
  <line y1="120" x1="0" y2="120" x2="3" stroke="black" stroke-xidth="0.5" />
  <line y1="130" x1="0" y2="130" x2="3" stroke="black" stroke-xidth="0.5" />
  <line y1="140" x1="0" y2="140" x2="3" stroke="black" stroke-xidth="0.5" />
  <line y1="150" x1="0" y2="150" x2="7" stroke="black" stroke-xidth="0.5" />
  <line y1="160" x1="0" y2="160" x2="3" stroke="black" stroke-xidth="0.5" />
  <line y1="170" x1="0" y2="170" x2="3" stroke="black" stroke-xidth="0.5" />
  <line y1="180" x1="0" y2="180" x2="3" stroke="black" stroke-xidth="0.5" />
  <line y1="190" x1="0" y2="190" x2="3" stroke="black" stroke-xidth="0.5" />
  <line y1="200" x1="0" y2="200" x2="10" stroke="black" stroke-xidth="0.5" />
  <line y1="210" x1="0" y2="210" x2="3" stroke="black" stroke-xidth="0.5" />
  <line y1="220" x1="0" y2="220" x2="3" stroke="black" stroke-xidth="0.5" />
  <line y1="230" x1="0" y2="230" x2="3" stroke="black" stroke-xidth="0.5" />
  <line y1="240" x1="0" y2="240" x2="3" stroke="black" stroke-xidth="0.5" />
  <line y1="250" x1="0" y2="250" x2="7" stroke="black" stroke-xidth="0.5" />
  <line y1="260" x1="0" y2="260" x2="3" stroke="black" stroke-xidth="0.5" />
  <line y1="270" x1="0" y2="270" x2="3" stroke="black" stroke-xidth="0.5" />
  <line y1="280" x1="0" y2="280" x2="3" stroke="black" stroke-xidth="0.5" />
  <line y1="290" x1="0" y2="290" x2="3" stroke="black" stroke-xidth="0.5" />
  <line y1="300" x1="0" y2="300" x2="3" stroke="black" stroke-xidth="0.5" />
  <line y1="310" x1="0" y2="310" x2="10" stroke="black" stroke-xidth="0.5" />
  <line y1="320" x1="0" y2="320" x2="3" stroke="black" stroke-xidth="0.5" />
  <line y1="330" x1="0" y2="330" x2="3" stroke="black" stroke-xidth="0.5" />
  <line y1="340" x1="0" y2="340" x2="3" stroke="black" stroke-xidth="0.5" />
  <line y1="350" x1="0" y2="350" x2="3" stroke="black" stroke-xidth="0.5" />

</svg>