<svg xmlns="http://www.w3.org/2000/svg" viewBox="0 0 26.9 28.35"><defs><style>.cls-1{opacity:0.5;}.cls-2{fill:#58595b;}</style></defs><title>cga-garb</title><g id="Слой_2" data-name="Слой 2"><g id="контент"><g class="cls-1"><path class="cls-2" d="M25.72,5.56H1.18a1.19,1.19,0,0,1,0-2.37H25.72a1.19,1.19,0,0,1,0,2.37Z"/><path class="cls-2" d="M16.5,4.85a3.11,3.11,0,0,0-6.1,0L8.08,4.38a5.48,5.48,0,0,1,10.74,0l-2.32.47Z"/><path class="cls-2" d="M5.48,28.35a2.4,2.4,0,0,1-2.35-2.3L1.9,5.56A1.18,1.18,0,0,1,3,4.31,1.15,1.15,0,0,1,4.26,5.42L5.49,25.91,21.42,26,22.64,5.42A1.18,1.18,0,1,1,25,5.56L23.77,26.05a2.4,2.4,0,0,1-2.35,2.3H5.48Z"/><path class="cls-2" d="M9,24a1.19,1.19,0,0,1-1.18-1.12L7,8.8a1.18,1.18,0,1,1,2.36-.13l.79,14.09A1.18,1.18,0,0,1,9,24Z"/><path class="cls-2" d="M17.93,24h-.06a1.18,1.18,0,0,1-1.12-1.24l.79-14.09a1.18,1.18,0,1,1,2.36.13l-.79,14.09A1.18,1.18,0,0,1,17.93,24Z"/><path class="cls-2" d="M13.45,24a1.18,1.18,0,0,1-1.18-1.19V8.73a1.18,1.18,0,0,1,2.36,0V22.82A1.18,1.18,0,0,1,13.45,24Z"/></g></g></g></svg>