<svg xmlns="http://www.w3.org/2000/svg" viewBox="0 0 28.34 28.35"><defs><style>.cls-1{fill:#58595b;}</style></defs><title>cga-psica</title><g id="Слой_2" data-name="Слой 2"><g id="контент"><path class="cls-1" d="M18.84,8.48l-6.9,8.43L9.43,14.28a1.38,1.38,0,0,0-2,1.9L11,19.94a1.41,1.41,0,0,0,1,.43h.05a1.39,1.39,0,0,0,1-.51L21,10.23a1.38,1.38,0,0,0-.19-1.94A1.4,1.4,0,0,0,18.84,8.48Z"/><path class="cls-1" d="M14.17,28.35A14.18,14.18,0,1,1,28.34,14.17,14.09,14.09,0,0,1,14.17,28.35Zm0-25.94A11.77,11.77,0,1,0,25.94,14.17,11.77,11.77,0,0,0,14.17,2.41Z"/></g></g></svg>