<svg xmlns="http://www.w3.org/2000/svg" viewBox="0 0 32.32 28.35"><defs><style>.cls-1{opacity:0.5;}.cls-2{fill:#58595b;}</style></defs><title>cga-retr</title><g id="Слой_2" data-name="Слой 2"><g id="контент"><g class="cls-1"><path class="cls-2" d="M14.18,28.35A14.18,14.18,0,1,1,28.35,14.17a1.33,1.33,0,0,1-2.66,0,11.51,11.51,0,1,0-3.6,8.37,12.74,12.74,0,0,0,1.26-1.4,1.33,1.33,0,1,1,2.11,1.61,13.92,13.92,0,0,1-1.54,1.72,14.11,14.11,0,0,1-9.74,3.88Z"/><path class="cls-2" d="M27,17.31a1.32,1.32,0,0,1-.89-.34l-4-3.62a1.33,1.33,0,1,1,1.78-2L27,14.2l3.15-2.83a1.33,1.33,0,0,1,1.78,2l-4,3.62a1.31,1.31,0,0,1-.89.34Z"/></g></g></g></svg>