<svg xmlns="http://www.w3.org/2000/svg" viewBox="0 0 1874.91 589.18"><defs><style>.cls-1{fill:#fff;}</style></defs><title>fromAI</title><g id="Слой_2" data-name="Слой 2"><g id="Слой_1-2" data-name="Слой 1"><path d="M1874.92,409.08V589.27H.92c.06-1.94.19-3.88.19-5.82q0-152.94,0-305.88v-6.28H12V196.82l8.12-.39V165.35l7.22-.54V146.92h18V104.55H69.76V68.16h58.18v45.76H165.8V218h8.39V152.37H261.6V99.19h9.8V93.94c0-12.16,0-24.32,0-36.48a13,13,0,0,1,.66-3.86C272.62,52,274,50.53,274,49c.24-5.65.1-11.32.1-17h5.95V52.26h5.46c1-5.87,2.24-11.52,2.92-17.23.43-3.64.08-7.38.08-11h88.11v76.85h4.48c.08-1.69.2-3.15.2-4.62,0-10.21,0-20.42,0-30.63,0-1.18-.23-2.69.38-3.49A24,24,0,0,0,386.8,46c-.31-7.49-.07-15-.07-22.52V.11c1.65,1.44,2.79,2,3.1,2.81.39,1.06.11,2.37.11,3.57V54.55a16,16,0,0,1,11.71,14.9v94.6c0,1.51-.06,3-.06,4.51V190h48.33V119.89h9.9V77.72l5,.25v41.74h43.68v-11h14.79a46.17,46.17,0,0,1,0,5.67c-.63,4.61,1.28,6.08,5.82,5.8,5.77-.35,11.58-.08,17.76-.08v70.38h66.7V383.28h27.06v32.05h15.6V391.14h58.58V133.79l7.23-.47V97.39h21.64V59.05H788.3v33.2h26.15v37.87h16.24v14.45h9v27.58l8.11.4v67.07l5.42.63V376.5h28.21V338.35l7.21-.56V291.56h114v11.11l7.23.61v37.61H1036v29.3l5.41.74v36.16h10.36V374.82H1123V328.58l4.48-.93v-36.9l4.45-.91V275.33H1136v14.46c3.31,1.27,4-.13,3.94-2.79-.09-6.85,0-13.71,0-20.66h74.49v73.89c3.43,1.35,3.93-.24,3.92-2.82-.06-11.26,0-22.53,0-33.79a11,11,0,0,1,.49-3.93c2.07-5.16,4.54-10.05,4.12-16-.51-7.17-.12-14.41-.12-21.62V248.33l1.54-.33c.56,1.71,1.58,3.41,1.6,5.13.14,11.11-.21,22.24.22,33.33.16,4,2,8,3.18,11.9a3,3,0,0,0,1.56,1.57c3.57,1.62,4.17,4.57,4.16,8.11q-.09,45,0,90.1v5.35h29.38V192.84h9.93V134.05a6.05,6.05,0,0,1,1.24-.39q55,0,109.91-.11c3.11,0,3.53,1.7,4,4.19.41,2.33,1.67,4.5,2.47,6.78.62,1.75,1.56,3.54,1.59,5.32.15,9.74.07,19.48.07,29.54,3.25.33,6.15.76,9.07.88,3.6.15,7.21,0,10.81.07s5.67,1.49,5.44,5.75c-.35,6.29.2,12.63-.19,18.91a12.53,12.53,0,0,0,4.43,11,10,10,0,0,1,2.75,6.46c.33,7.79.13,15.61.13,23.42v21.57h9.56V215.36h70.3V171.61l7.92-.42v-5c0-10.22,0-20.43,0-30.64,0-1.2.55-3.41,1-3.44,3.47-.23,2.51-2.73,2.58-4.63.09-2.66,0-5.33,0-8.31l5.13.32v11.84c3.36,1.18,3.94-.32,3.91-2.92-.09-6.55,0-13.1,0-19.68h70.93V178.4h6.56V91.57h6V135l4.16.76c.18,1.39.34,2.54.52,3.91l4.44.52V242.25h37.22V190.19h9.91V155.5h6v32.68h30.91V175.35h13.12v15.1h16.24v52.28h64.65V401.29h20v13.1h5.31c.29-1.84.53-3.4.83-5.31Z" transform="translate(-0.01 -0.09)"/><path class="cls-1" d="M1874.92,409.08h-51.57c-.3,1.91-.54,3.47-.83,5.31h-5.31v-13.1h-20V242.73h-64.65V190.45h-16.24v-15.1h-13.12v12.83h-30.91V155.5h-6v34.69h-9.91v52.06h-37.22V140.19l-4.44-.52c-.18-1.37-.34-2.52-.52-3.91L1610,135V91.57h-6V178.4h-6.56V108.69h-70.93c0,6.58-.06,13.13,0,19.68,0,2.6-.55,4.1-3.91,2.92V119.45l-5.13-.32c0,3,.07,5.65,0,8.31-.07,1.9.89,4.4-2.58,4.63-.41,0-.95,2.24-1,3.44-.07,10.21,0,20.42,0,30.64v5l-7.92.42v43.75h-70.3v52.09h-9.56V245.88c0-7.81.2-15.63-.13-23.42a10,10,0,0,0-2.75-6.46,12.53,12.53,0,0,1-4.43-11c.39-6.28-.16-12.62.19-18.91.23-4.26-1.78-5.66-5.44-5.75s-7.21.08-10.81-.07c-2.92-.12-5.82-.55-9.07-.88,0-10.06.08-19.8-.07-29.54,0-1.78-1-3.57-1.59-5.32-.8-2.28-2.06-4.45-2.47-6.78-.45-2.49-.87-4.2-4-4.19q-55,.12-109.91.11a6.05,6.05,0,0,0-1.24.39v58.79h-9.93V403.49H1235v-5.35q0-45.06,0-90.1c0-3.54-.59-6.49-4.16-8.11a3,3,0,0,1-1.56-1.57c-1.19-3.94-3-7.89-3.18-11.9-.43-11.09-.08-22.22-.22-33.33,0-1.72-1-3.42-1.6-5.13l-1.54.33v13.72c0,7.21-.39,14.45.12,21.62.42,6-2,10.86-4.12,16a11,11,0,0,0-.49,3.93c0,11.26,0,22.53,0,33.79,0,2.58-.49,4.17-3.92,2.82V266.34h-74.49c0,7-.06,13.81,0,20.66,0,2.66-.63,4.06-3.94,2.79V275.33h-4.09v14.51l-4.45.91v36.9l-4.48.93v46.24h-71.19v32.27h-10.36V370.93l-5.41-.74v-29.3h-26.13V303.28l-7.23-.61V291.56h-114v46.23l-7.21.56V376.5H853.24V240.25l-5.42-.63V172.55l-8.11-.4V144.57h-9V130.12H814.45V92.25H788.3V59.05H743.64V97.39H722v35.93l-7.23.47V391.14H656.19v24.19h-15.6V383.28H613.53V190.45h-66.7V120.07c-6.18,0-12-.27-17.76.08-4.54.28-6.45-1.19-5.82-5.8a46.17,46.17,0,0,0,0-5.67H508.49v11H464.81V78l-5-.25v42.17h-9.9V190H401.59V168.56c0-1.5.06-3,.06-4.51V69.45a16,16,0,0,0-11.71-14.9V6.49c0-1.2.28-2.51-.11-3.57-.31-.84-1.45-1.37-3.1-2.81V23.48c0,7.51-.24,15,.07,22.52a24,24,0,0,1-5.09,16.14c-.61.8-.37,2.31-.38,3.49,0,10.21,0,20.42,0,30.63,0,1.47-.12,2.93-.2,4.62h-4.48V24H288.52c0,3.62.35,7.36-.08,11-.68,5.71-1.9,11.36-2.92,17.23h-5.46V32h-5.95c0,5.7.14,11.37-.1,17-.06,1.56-1.39,3-1.92,4.63a13,13,0,0,0-.66,3.86c-.05,12.16,0,24.32,0,36.48v5.25h-9.8v53.18H174.19V218H165.8V113.92H127.94V68.16H69.76v36.39H45.41v42.37h-18v17.89l-7.22.54v31.08l-8.12.39v74.47H1.11v6.28q0,152.94,0,305.88c0,1.94-.13,3.88-.19,5.82-.3-.15-.85-.28-.86-.45-.08-1.2,0-2.4,0-3.6V.09h1874.9Z" transform="translate(-0.01 -0.09)"/></g></g></svg>